# xmcd
#
# Track frame offsets: 
#        150
#        10165
#        19481
#        31175
#        42192
#        53532
#        64577
#        71339
#
# Disc length: 1074 seconds
#
# Revision: 0
# Processed by: cddbd v1.5.2PL0 Copyright (c) Steve Scherf et al.
# Submitted via: ExactAudioCopy v0.99pb4
#
DISCID=5b043008
DTITLE=Bob Wills and Tommy Duncan - Faded Love
DYEAR=1985
DGENRE=Country Swing
TTITLE0=San Antonio Rose
TTITLE1=Bubbles In My Beer
TTITLE2=Time Changes Everything
TTITLE3=Watching The Bubbles In My Beer
TTITLE4=Faded Love
TTITLE5=Maiden's Prayer
TTITLE6=Beaumont Rag
TTITLE7=No Disappointments In Heaven
EXTD=
EXTT0=
EXTT1=
EXTT2=
EXTT3=
EXTT4=
EXTT5=
EXTT6=
EXTT7=
PLAYORDER=
